<?xml version="1.0" standalone="no"?>
<!DOCTYPE svg PUBLIC "-//W3C//DTD SVG 20010904//EN"
 "http://www.w3.org/TR/2001/REC-SVG-20010904/DTD/svg10.dtd">
<svg version="1.0" xmlns="http://www.w3.org/2000/svg"
 width="700.000000pt" height="700.000000pt" viewBox="0 0 700.000000 700.000000"
 preserveAspectRatio="xMidYMid meet">
<metadata>
Created by potrace 1.11, written by Peter Selinger 2001-2013
</metadata>
<g transform="translate(0.000000,700.000000) scale(0.100000,-0.100000)"
fill="#000000" stroke="none">
<path d="M3369 6996 c-2 -2 -38 -6 -79 -9 -135 -10 -329 -42 -480 -78 -1233
-298 -2200 -1253 -2509 -2479 -16 -63 -32 -133 -35 -155 -4 -22 -8 -47 -11
-55 -2 -8 -6 -32 -9 -52 -3 -21 -9 -55 -12 -75 -24 -152 -32 -291 -29 -533 2
-146 6 -283 9 -305 3 -22 8 -60 11 -85 8 -59 13 -93 26 -165 6 -33 13 -73 16
-90 8 -51 70 -286 98 -370 286 -870 917 -1596 1735 -1997 197 -97 364 -160
610 -232 72 -21 320 -73 390 -81 30 -4 66 -9 80 -10 111 -15 206 -20 405 -20
247 0 365 7 515 29 1112 169 2065 868 2560 1881 151 310 270 697 306 1000 4
28 8 53 10 56 25 43 25 762 -1 859 -2 8 -6 38 -10 65 -22 182 -101 489 -180
700 -300 800 -898 1463 -1665 1846 -211 106 -372 168 -630 243 -86 25 -325 73
-429 86 -52 7 -106 14 -120 16 -35 6 -566 15 -572 10z"/>
</g>
</svg>
